<svg version="1.1" id="Layer_1" xmlns="http://www.w3.org/2000/svg" xmlns:xlink="http://www.w3.org/1999/xlink" x="0px" y="0px"
	 width="100%" viewBox="0 0 512 512" enable-background="new 0 0 512 512" xml:space="preserve">
<path fill="#000000" opacity="1.000000" stroke="none" 
	d="
M1.000000,81.000000 
	C1.000000,54.346519 1.000000,27.693035 1.000000,1.019777 
	C171.569092,1.019777 342.138184,1.019777 513.000000,1.019777 
	C513.000000,98.354034 513.000000,195.708359 512.663940,293.709412 
	C504.561218,279.135162 489.875458,283.832550 476.998627,282.791779 
	C476.998627,279.415955 476.886749,276.599854 477.016632,273.794983 
	C477.942810,253.791382 461.038055,237.816620 441.053406,237.983734 
	C429.226166,238.082642 417.397400,238.011993 405.569397,237.990005 
	C403.812195,237.986740 402.055298,237.831421 399.998993,237.731979 
	C399.998993,235.184448 399.998993,233.202332 399.998993,231.220215 
	C399.998962,186.906631 400.022736,142.593018 399.956329,98.279526 
	C399.950653,94.506821 399.563660,90.700562 398.978638,86.968704 
	C396.344116,70.163704 381.953430,58.004631 364.839722,58.003956 
	C255.221909,57.999634 145.604065,57.961651 35.986317,58.050369 
	C21.624157,58.061993 10.775175,64.422310 4.141226,77.480431 
	C3.452673,78.835770 2.063888,79.835350 1.000000,81.000000 
z"/>
<path fill="#5408A5" opacity="1.000000" stroke="none" 
	d="
M1.000000,81.468658 
	C2.063888,79.835350 3.452673,78.835770 4.141226,77.480431 
	C10.775175,64.422310 21.624157,58.061993 35.986317,58.050369 
	C145.604065,57.961651 255.221909,57.999634 364.839722,58.003956 
	C381.953430,58.004631 396.344116,70.163704 398.978638,86.968704 
	C399.563660,90.700562 399.950653,94.506821 399.956329,98.279526 
	C400.022736,142.593018 399.998962,186.906631 399.998993,231.220215 
	C399.998993,233.202332 399.998993,235.184448 399.998993,237.731979 
	C402.055298,237.831421 403.812195,237.986740 405.569397,237.990005 
	C417.397400,238.011993 429.226166,238.082642 441.053406,237.983734 
	C461.038055,237.816620 477.942810,253.791382 477.016632,273.794983 
	C476.886749,276.599854 476.998627,279.415955 476.998627,282.791779 
	C489.875458,283.832550 504.561218,279.135162 512.663940,294.178070 
	C513.000000,319.354218 513.000000,344.708466 512.671509,370.350891 
	C510.456207,372.697021 508.877258,375.227783 506.611206,376.703247 
	C503.113251,378.980927 502.916290,381.978546 502.942902,385.595734 
	C503.068024,402.586426 503.035400,419.578644 502.984222,436.570099 
	C502.951599,447.406952 494.321228,455.982330 483.429077,455.987213 
	C429.455780,456.011322 375.482452,456.007385 321.509155,455.988373 
	C313.073181,455.985413 305.622253,450.768311 303.131775,442.762177 
	C302.085907,439.400024 301.932159,435.760345 301.333344,431.998688 
	C298.963806,431.998688 296.811554,431.998657 294.659271,431.998657 
	C208.202042,431.998657 121.744789,431.984039 35.287567,432.012360 
	C19.862484,432.017426 9.582862,424.363953 3.011899,410.895386 
	C2.633980,410.120789 1.683842,409.625336 1.000005,409.000000 
	C1.000000,299.979095 1.000000,190.958206 1.000000,81.468658 
M418.051605,254.812790 
	C408.363464,254.873337 398.675354,254.933884 388.066437,254.819626 
	C379.047089,254.911163 370.027710,255.002686 360.229767,255.008545 
	C347.860199,257.053894 341.815765,267.791595 344.850311,282.648560 
	C346.671722,282.648560 348.538910,282.648560 350.908356,282.648560 
	C350.695709,273.548248 349.529297,264.087585 361.943878,260.982330 
	C370.961182,260.933655 379.978485,260.885010 389.927460,260.951050 
	C399.613922,260.913849 409.300354,260.876648 419.921753,260.953308 
	C427.612335,260.921326 435.302948,260.889343 443.705963,261.063354 
	C455.852570,263.854736 454.113159,273.737915 454.128387,282.753693 
	C456.524200,282.753693 458.412506,282.753693 460.257263,282.753693 
	C462.670349,268.369995 458.578522,256.599854 442.072052,254.827682 
	C434.371429,254.882935 426.670837,254.938171 418.051605,254.812790 
M327.918427,123.255272 
	C333.609497,123.198471 339.300568,123.141678 345.915741,123.260612 
	C352.273560,123.201302 358.631378,123.141991 365.913727,123.258904 
	C370.230377,123.293861 374.553009,123.202393 378.861755,123.405449 
	C382.063751,123.556343 383.261871,122.395103 383.192871,119.115517 
	C383.018219,110.816292 383.195435,102.510376 383.120178,94.208153 
	C383.014771,82.578926 376.748901,75.789253 364.322083,74.323929 
	C356.544556,74.363838 348.767059,74.403755 340.069000,74.284416 
	C330.378235,74.335953 320.687439,74.387497 310.071991,74.280312 
	C299.381287,74.329552 288.690613,74.378784 277.073669,74.277237 
	C266.379822,74.330948 255.685959,74.384659 244.066940,74.291954 
	C233.706604,74.340508 223.346268,74.389061 212.061478,74.286903 
	C198.699677,74.337555 185.337875,74.388206 171.051956,74.294991 
	C157.701157,74.346344 144.350357,74.397690 130.073105,74.298920 
	C115.709740,74.348129 101.346375,74.397339 86.059120,74.294525 
	C69.765121,74.270706 53.470051,74.124031 37.177479,74.265358 
	C25.919853,74.363014 17.362831,81.725410 17.071218,91.577560 
	C16.795860,100.880615 17.078129,110.198975 16.964167,119.508751 
	C16.930496,122.259293 17.868067,123.391953 20.677559,123.374077 
	C42.784996,123.233452 64.892929,123.171455 87.923264,123.267303 
	C102.282036,123.206703 116.640800,123.146103 131.922714,123.264511 
	C143.618500,123.209343 155.314301,123.154175 167.931808,123.275574 
	C178.957031,123.217682 189.982239,123.159782 201.930664,123.269905 
	C211.622833,123.210899 221.315018,123.151894 231.930130,123.262115 
	C240.951035,123.208603 249.971954,123.155098 259.917999,123.273766 
	C268.935486,123.217789 277.953003,123.161819 287.901550,123.270912 
	C294.930634,123.212555 301.959686,123.154190 309.914581,123.261009 
	C315.608307,123.200516 321.302032,123.140015 327.918427,123.255272 
M406.803986,355.953461 
	C412.849121,355.936371 416.794983,359.291992 419.939850,364.902435 
	C420.358429,367.820190 420.776978,370.737915 421.311249,374.462097 
	C427.017151,373.619659 432.509827,372.808716 438.881927,372.052948 
	C444.256531,371.335907 449.631104,370.618866 455.868958,369.989136 
	C460.912842,369.305603 465.956757,368.622070 471.863586,368.008972 
	C476.263519,367.402496 480.663452,366.796021 485.935333,366.216888 
	C486.929321,366.143768 487.922638,366.059662 488.917389,365.999237 
	C496.508575,365.537964 497.003113,365.021271 497.003876,357.478333 
	C497.005554,341.026733 497.004639,324.575165 497.004242,308.123566 
	C497.004028,298.814209 497.003510,298.812500 487.488739,299.028717 
	C486.992523,299.039948 486.497925,299.121521 485.081696,299.033539 
	C480.722107,299.079102 476.362549,299.124634 471.077606,299.033539 
	C466.052643,299.079041 461.027679,299.124573 455.075653,299.035278 
	C449.718933,299.080688 444.362183,299.126099 438.078033,299.038300 
	C432.720245,299.082550 427.362457,299.126801 421.078461,299.040436 
	C416.054016,299.084412 411.029602,299.128387 405.080109,299.043762 
	C400.388000,299.086212 395.695892,299.128662 390.078644,299.043640 
	C385.386261,299.086273 380.693909,299.128876 375.074860,299.046753 
	C370.050201,299.088135 365.025513,299.129547 359.072601,299.047882 
	C353.716492,299.089447 348.360352,299.131042 342.075409,299.050446 
	C336.717773,299.090790 331.360107,299.131134 325.075562,299.050720 
	C321.590332,299.036469 318.104858,298.990234 314.619904,299.015076 
	C308.706940,299.057159 308.024200,299.717133 308.014679,305.635406 
	C307.989624,321.236969 307.926147,336.839142 308.029358,352.440063 
	C308.116852,365.661652 306.006744,365.035339 319.582520,366.419373 
	C321.716827,366.636993 323.863007,366.738098 326.787933,367.145508 
	C332.192047,367.759430 337.596191,368.373383 343.745239,369.316589 
	C349.154663,369.907318 354.564117,370.498016 360.677673,371.467316 
	C365.452271,371.966858 370.226837,372.466431 375.747559,373.287781 
	C378.443237,373.565765 381.138885,373.843719 384.278748,374.167480 
	C384.011841,366.646667 385.812622,360.733124 392.836731,356.826508 
	C397.226501,356.494934 401.616302,356.163391 406.803986,355.953461 
M356.500000,139.998627 
	C243.435699,139.998627 130.371399,139.998627 16.998657,139.998627 
	C16.998657,143.009308 16.998655,145.161865 16.998655,147.314423 
	C16.998650,225.138855 16.975790,302.963318 17.041712,380.787689 
	C17.047026,387.061157 17.748562,393.331055 17.972853,399.608093 
	C18.263418,407.739868 27.669979,415.159027 34.905041,415.141083 
	C122.061203,414.924957 209.218094,415.002777 296.374786,414.991119 
	C298.136932,414.990875 299.899078,414.837219 301.991882,414.739746 
	C301.991882,403.396606 302.055695,392.585114 301.899567,381.776794 
	C301.882782,380.613495 300.834869,379.162354 299.845703,378.365845 
	C294.140869,373.772461 291.751343,368.088013 291.882111,360.619446 
	C292.232117,340.627838 292.194946,320.623352 291.911438,300.629669 
	C291.789886,292.058960 300.851837,282.465302 309.707642,282.941345 
	C315.629456,283.259674 321.582245,283.001831 328.001770,283.001831 
	C328.001770,279.036591 328.036102,275.740570 327.995270,272.445496 
	C327.878601,263.028381 331.453918,255.150024 337.984100,248.530533 
	C344.938599,241.480881 353.518219,238.207230 363.308319,238.024277 
	C369.736938,237.904144 376.169617,238.001572 382.682037,238.001572 
	C382.682037,205.010193 382.682037,172.769440 382.682037,140.654037 
	C382.075287,140.388870 381.782928,140.150940 381.488708,140.148575 
	C373.492584,140.083862 365.496277,140.043274 356.500000,139.998627 
M435.645599,389.007385 
	C430.840485,389.761627 426.035400,390.515839 421.601196,391.211853 
	C421.013519,396.583466 421.087158,401.479828 419.820496,406.000671 
	C418.413361,411.022644 414.183685,413.976807 408.970032,413.876099 
	C402.169922,413.744751 394.925415,415.918427 388.736511,411.172424 
	C381.940765,405.961121 384.711517,398.108795 383.734039,390.997345 
	C362.162109,388.288055 340.886536,385.615997 319.323395,382.907837 
	C319.185974,384.825134 319.013580,386.123383 319.011932,387.421844 
	C318.992920,402.574249 319.093781,417.727600 318.941772,432.878479 
	C318.896484,437.392212 320.649292,439.060059 325.134430,439.052856 
	C376.752350,438.970184 428.370575,438.968445 479.988495,439.054443 
	C484.589905,439.062103 486.094971,437.145844 486.054047,432.753052 
	C485.913025,417.601959 486.007233,402.448761 485.985260,387.296387 
	C485.983398,385.999756 485.784790,384.703369 485.657410,383.162476 
	C478.729462,383.900574 472.056396,384.537201 465.403076,385.338074 
	C455.778900,386.496521 446.169006,387.773865 435.645599,389.007385 
M406.638611,283.001282 
	C416.904510,283.001282 427.170410,283.001282 437.611298,283.001282 
	C437.611298,280.764740 437.611298,279.077209 437.611298,277.274353 
	C425.014435,277.274353 412.784607,277.274353 400.397705,277.274353 
	C400.397705,279.249359 400.397705,280.936584 400.397705,283.001129 
	C402.407288,283.001129 404.045349,283.001129 406.638611,283.001282 
M381.980927,282.797180 
	C382.372955,281.060699 382.764984,279.324249 383.231018,277.260010 
	C377.398895,277.260010 372.494995,277.260010 367.373718,277.260010 
	C367.373718,279.214203 367.373718,280.898193 367.373718,282.949402 
	C372.168396,282.949402 376.619385,282.949402 381.980927,282.797180 
M403.959045,374.024292 
	C403.545441,373.418396 403.131836,372.812500 402.718231,372.206543 
	C402.158234,372.832214 401.119598,373.451752 401.111511,374.084473 
	C401.020447,381.225525 401.048096,388.369415 401.193848,395.509491 
	C401.204437,396.029755 402.379578,396.526215 403.989868,397.815918 
	C403.989868,389.442657 403.989868,382.190674 403.959045,374.024292 
z"/>
<path fill="#000000" opacity="1.000000" stroke="none" 
	d="
M1.000005,409.468658 
	C1.683842,409.625336 2.633980,410.120789 3.011899,410.895386 
	C9.582862,424.363953 19.862484,432.017426 35.287567,432.012360 
	C121.744789,431.984039 208.202042,431.998657 294.659271,431.998657 
	C296.811554,431.998657 298.963806,431.998688 301.333344,431.998688 
	C301.932159,435.760345 302.085907,439.400024 303.131775,442.762177 
	C305.622253,450.768311 313.073181,455.985413 321.509155,455.988373 
	C375.482452,456.007385 429.455780,456.011322 483.429077,455.987213 
	C494.321228,455.982330 502.951599,447.406952 502.984222,436.570099 
	C503.035400,419.578644 503.068024,402.586426 502.942902,385.595734 
	C502.916290,381.978546 503.113251,378.980927 506.611206,376.703247 
	C508.877258,375.227783 510.456207,372.697021 512.671509,370.819580 
	C513.000000,418.306000 513.000000,465.611969 513.000000,512.938965 
	C342.333313,512.938965 171.666656,512.938965 1.000000,512.938965 
	C1.000000,478.564423 1.000000,444.250885 1.000005,409.468658 
z"/>
<path fill="#000000" opacity="1.000000" stroke="none" 
	d="
M357.000000,139.998627 
	C365.496277,140.043274 373.492584,140.083862 381.488708,140.148575 
	C381.782928,140.150940 382.075287,140.388870 382.682037,140.654037 
	C382.682037,172.769440 382.682037,205.010193 382.682037,238.001572 
	C376.169617,238.001572 369.736938,237.904144 363.308319,238.024277 
	C353.518219,238.207230 344.938599,241.480881 337.984100,248.530533 
	C331.453918,255.150024 327.878601,263.028381 327.995270,272.445496 
	C328.036102,275.740570 328.001770,279.036591 328.001770,283.001831 
	C321.582245,283.001831 315.629456,283.259674 309.707642,282.941345 
	C300.851837,282.465302 291.789886,292.058960 291.911438,300.629669 
	C292.194946,320.623352 292.232117,340.627838 291.882111,360.619446 
	C291.751343,368.088013 294.140869,373.772461 299.845703,378.365845 
	C300.834869,379.162354 301.882782,380.613495 301.899567,381.776794 
	C302.055695,392.585114 301.991882,403.396606 301.991882,414.739746 
	C299.899078,414.837219 298.136932,414.990875 296.374786,414.991119 
	C209.218094,415.002777 122.061203,414.924957 34.905041,415.141083 
	C27.669979,415.159027 18.263418,407.739868 17.972853,399.608093 
	C17.748562,393.331055 17.047026,387.061157 17.041712,380.787689 
	C16.975790,302.963318 16.998650,225.138855 16.998655,147.314423 
	C16.998655,145.161865 16.998657,143.009308 16.998657,139.998627 
	C130.371399,139.998627 243.435699,139.998627 357.000000,139.998627 
M70.542648,177.991287 
	C70.058655,178.448593 69.614021,178.958328 69.084938,179.355606 
	C52.840248,191.552963 43.950409,208.238495 42.224491,228.015137 
	C40.090965,252.462418 48.421150,273.276367 67.704796,289.247223 
	C79.406479,298.938660 92.946411,304.181091 107.880943,304.864532 
	C131.096008,305.926788 150.582108,297.652893 165.846985,279.730133 
	C175.368088,268.551208 180.869370,255.593277 181.825012,241.231049 
	C183.496902,216.104782 174.904312,194.933029 154.655792,179.219604 
	C144.024872,170.969696 131.936417,166.129242 118.460266,165.011017 
	C101.199295,163.578720 85.443916,167.912674 70.542648,177.991287 
M156.500000,328.000000 
	C122.192780,328.000122 87.885559,327.993042 53.578342,328.006622 
	C46.892624,328.009277 42.076363,332.186615 42.033749,338.275360 
	C41.937004,352.097504 41.918365,365.921509 42.039425,379.743286 
	C42.100395,386.704590 45.615196,389.991974 52.571114,389.993011 
	C123.184074,390.003571 193.797043,390.003784 264.410004,389.992950 
	C271.618713,389.991852 274.982666,386.582520 274.993896,379.316345 
	C275.014221,366.159729 275.003082,353.003021 274.998810,339.846375 
	C274.996002,331.262238 271.695648,328.007019 262.919830,328.004456 
	C227.779892,327.994293 192.639938,328.000092 156.500000,328.000000 
M321.500000,181.999680 
	C318.005920,181.999680 314.511810,181.999634 311.017731,181.999680 
	C284.728943,182.000000 258.438690,181.874496 232.153625,182.187119 
	C229.396790,182.219910 225.453522,184.195816 224.269180,186.437149 
	C223.059967,188.725555 223.565781,193.222351 225.178085,195.334717 
	C226.802917,197.463486 230.704819,198.832336 233.619354,198.850204 
	C270.555359,199.076736 307.493225,198.999466 344.430634,198.997147 
	C345.428650,198.997086 346.444885,199.086411 347.421539,198.934387 
	C351.568359,198.288971 355.368500,193.653549 354.973633,189.811462 
	C354.465698,184.869095 351.496674,182.065079 346.459229,182.020920 
	C338.473389,181.950912 330.486450,182.000626 321.500000,181.999680 
M246.502975,225.999741 
	C240.578491,226.325043 234.563400,226.130951 228.758774,227.143463 
	C224.284424,227.923935 222.485504,231.901306 223.110184,236.284378 
	C223.720474,240.566467 226.545166,242.976776 230.988708,242.981110 
	C259.615570,243.009048 288.242462,243.018448 316.869293,242.969696 
	C320.889618,242.962860 323.848633,239.791290 323.996674,235.748749 
	C324.241547,229.061096 321.168671,226.024506 313.909637,226.013123 
	C291.773804,225.978394 269.637848,226.000031 246.502975,225.999741 
M253.499817,271.000366 
	C246.335495,271.000702 239.170959,270.967560 232.006912,271.012085 
	C226.377090,271.047089 223.291046,273.727753 223.005966,278.694946 
	C222.685944,284.271179 225.264206,287.760315 230.956253,287.881165 
	C244.612167,288.171143 258.280426,288.114410 271.939209,287.904938 
	C276.595123,287.833527 280.331573,283.246948 279.972717,278.958832 
	C279.673004,275.377594 275.685699,270.400818 270.981445,270.873962 
	C265.538330,271.421417 259.997864,271.000732 253.499817,271.000366 
z"/>
<path fill="#000000" opacity="1.000000" stroke="none" 
	d="
M436.099304,389.003937 
	C446.169006,387.773865 455.778900,386.496521 465.403076,385.338074 
	C472.056396,384.537201 478.729462,383.900574 485.657410,383.162476 
	C485.784790,384.703369 485.983398,385.999756 485.985260,387.296387 
	C486.007233,402.448761 485.913025,417.601959 486.054047,432.753052 
	C486.094971,437.145844 484.589905,439.062103 479.988495,439.054443 
	C428.370575,438.968445 376.752350,438.970184 325.134430,439.052856 
	C320.649292,439.060059 318.896484,437.392212 318.941772,432.878479 
	C319.093781,417.727600 318.992920,402.574249 319.011932,387.421844 
	C319.013580,386.123383 319.185974,384.825134 319.323395,382.907837 
	C340.886536,385.615997 362.162109,388.288055 383.734039,390.997345 
	C384.711517,398.108795 381.940765,405.961121 388.736511,411.172424 
	C394.925415,415.918427 402.169922,413.744751 408.970032,413.876099 
	C414.183685,413.976807 418.413361,411.022644 419.820496,406.000671 
	C421.087158,401.479828 421.013519,396.583466 421.601196,391.211853 
	C426.035400,390.515839 430.840485,389.761627 436.099304,389.003937 
z"/>
<path fill="#BE6CFF" opacity="1.000000" stroke="none" 
	d="
M87.000710,123.085243 
	C64.892929,123.171455 42.784996,123.233452 20.677559,123.374077 
	C17.868067,123.391953 16.930496,122.259293 16.964167,119.508751 
	C17.078129,110.198975 16.795860,100.880615 17.071218,91.577560 
	C17.362831,81.725410 25.919853,74.363014 37.177479,74.265358 
	C53.470051,74.124031 69.765121,74.270706 86.523262,74.807068 
	C86.657310,80.503479 86.327225,85.687355 85.684998,91.034508 
	C81.706093,92.859993 79.554955,95.428917 79.908882,99.731590 
	C80.275139,104.184280 83.432953,105.792480 86.997665,107.542572 
	C86.998947,113.031479 86.999825,118.058357 87.000710,123.085243 
M50.301933,103.029129 
	C53.531338,104.312492 56.785980,106.627342 59.982075,106.549141 
	C62.487404,106.487831 65.710411,103.940826 67.121811,101.598633 
	C68.151093,99.890564 67.402962,96.369926 66.287018,94.275467 
	C64.365311,90.668709 57.945080,89.764290 53.607712,91.849144 
	C49.576374,93.786896 48.378517,97.226341 50.301933,103.029129 
z"/>
<path fill="#AE73FE" opacity="1.000000" stroke="none" 
	d="
M167.010071,123.099007 
	C155.314301,123.154175 143.618500,123.209343 131.461197,122.701294 
	C130.989822,117.972244 131.279007,113.775452 130.851990,109.652840 
	C130.615982,107.374352 129.179688,105.220200 128.408569,102.637512 
	C128.541489,99.894005 128.550293,97.522980 128.797546,94.828888 
	C129.690521,87.820236 130.345032,81.134644 130.999557,74.449036 
	C144.350357,74.397690 157.701157,74.346344 171.517090,74.805611 
	C171.985260,80.490143 171.988297,85.664055 171.606964,90.895737 
	C165.539886,92.013145 162.176437,95.081802 163.222809,99.378746 
	C163.887299,102.107529 166.376572,104.391953 167.916550,107.277260 
	C167.527069,112.818924 167.268570,117.958961 167.010071,123.099007 
z"/>
<path fill="#B76FFF" opacity="1.000000" stroke="none" 
	d="
M130.536331,74.373978 
	C130.345032,81.134644 129.690521,87.820236 128.566589,94.586525 
	C125.127388,90.488441 120.567497,89.987617 116.573174,91.452469 
	C114.025757,92.386673 111.478836,95.593445 110.630722,98.311432 
	C109.585800,101.660133 111.843399,104.744774 115.309616,106.034615 
	C120.203499,107.855690 124.722702,107.286873 128.284454,103.009995 
	C129.179688,105.220200 130.615982,107.374352 130.851990,109.652840 
	C131.279007,113.775452 130.989822,117.972244 130.999634,122.611786 
	C116.640800,123.146103 102.282036,123.206703 87.461990,123.176270 
	C86.999825,118.058357 86.998947,113.031479 87.407959,107.484772 
	C88.645988,106.939232 89.481293,106.974403 90.301079,106.877846 
	C95.403839,106.276802 98.753830,102.982567 98.642830,98.713203 
	C98.523735,94.132698 94.996742,91.166733 89.472054,90.997025 
	C88.313553,90.961433 87.155426,90.913483 85.997131,90.871231 
	C86.327225,85.687355 86.657310,80.503479 86.985207,74.883087 
	C101.346375,74.397339 115.709740,74.348129 130.536331,74.373978 
z"/>
<path fill="#23BBFF" opacity="1.000000" stroke="none" 
	d="
M439.005493,299.171478 
	C444.362183,299.126099 449.718933,299.080688 455.441498,299.497925 
	C455.538666,302.916901 455.046936,305.872437 455.037231,308.829590 
	C454.970367,329.186829 455.004242,349.544373 455.005707,369.901825 
	C449.631104,370.618866 444.256531,371.335907 438.441864,371.556885 
	C438.001617,366.896790 437.944977,362.731934 438.010834,358.568970 
	C438.324127,338.769531 438.670746,318.970581 439.005493,299.171478 
z"/>
<path fill="#2DB5FF" opacity="1.000000" stroke="none" 
	d="
M438.541748,299.104889 
	C438.670746,318.970581 438.324127,338.769531 438.010834,358.568970 
	C437.944977,362.731934 438.001617,366.896790 438.002136,371.529297 
	C432.509827,372.808716 427.017151,373.619659 421.311249,374.462097 
	C420.776978,370.737915 420.358429,367.820190 420.068665,364.152039 
	C420.476562,358.471466 420.892975,353.544586 421.009644,348.610626 
	C421.399170,332.132141 421.681366,315.651123 422.004669,299.171082 
	C427.362457,299.126801 432.720245,299.082550 438.541748,299.104889 
z"/>
<path fill="#5C9DFF" opacity="1.000000" stroke="none" 
	d="
M343.004242,299.172607 
	C348.360352,299.131042 353.716492,299.089447 359.536682,299.567139 
	C359.991730,323.753815 359.982635,347.421265 359.973541,371.088715 
	C354.564117,370.498016 349.154663,369.907318 343.372681,368.684143 
	C343.001495,345.091980 343.002869,322.132294 343.004242,299.172607 
z"/>
<path fill="#6E94FF" opacity="1.000000" stroke="none" 
	d="
M326.003693,366.893066 
	C323.863007,366.738098 321.716827,366.636993 319.582520,366.419373 
	C306.006744,365.035339 308.116852,365.661652 308.029358,352.440063 
	C307.926147,336.839142 307.989624,321.236969 308.014679,305.635406 
	C308.024200,299.717133 308.706940,299.057159 314.619904,299.015076 
	C318.104858,298.990234 321.590332,299.036469 325.538696,299.568726 
	C326.002441,322.355499 326.003082,344.624298 326.003693,366.893066 
z"/>
<path fill="#6599FF" opacity="1.000000" stroke="none" 
	d="
M326.395813,367.019287 
	C326.003082,344.624298 326.002441,322.355499 326.002136,299.629089 
	C331.360107,299.131134 336.717773,299.090790 342.539825,299.111511 
	C343.002869,322.132294 343.001495,345.091980 343.000183,368.519470 
	C337.596191,368.373383 332.192047,367.759430 326.395813,367.019287 
z"/>
<path fill="#17C0FF" opacity="1.000000" stroke="none" 
	d="
M455.437317,369.945496 
	C455.004242,349.544373 454.970367,329.186829 455.037231,308.829590 
	C455.046936,305.872437 455.538666,302.916901 455.905029,299.565338 
	C461.027679,299.124573 466.052643,299.079041 471.442566,299.497131 
	C471.538635,302.917999 471.047302,305.874451 471.036865,308.832611 
	C470.967407,328.534393 471.000732,348.236542 471.000641,367.938538 
	C465.956757,368.622070 460.912842,369.305603 455.437317,369.945496 
z"/>
<path fill="#54A1FF" opacity="1.000000" stroke="none" 
	d="
M360.325623,371.278015 
	C359.982635,347.421265 359.991730,323.753815 360.000824,299.628662 
	C365.025513,299.129547 370.050201,299.088135 375.476746,299.514221 
	C375.586121,303.438904 375.053467,306.895172 375.040405,310.353455 
	C374.961395,331.224060 375.001312,352.095093 375.001434,372.966003 
	C370.226837,372.466431 365.452271,371.966858 360.325623,371.278015 
z"/>
<path fill="#4BA6FF" opacity="1.000000" stroke="none" 
	d="
M375.374512,373.126892 
	C375.001312,352.095093 374.961395,331.224060 375.040405,310.353455 
	C375.053467,306.895172 375.586121,303.438904 375.940094,299.576599 
	C380.693909,299.128876 385.386261,299.086273 390.524475,299.526917 
	C390.663635,317.012543 390.288177,334.014252 390.142487,351.017944 
	C390.125397,353.012756 391.373596,355.018433 392.035278,357.019073 
	C385.812622,360.733124 384.011841,366.646667 384.278748,374.167480 
	C381.138885,373.843719 378.443237,373.565765 375.374512,373.126892 
z"/>
<path fill="#5C9DFF" opacity="1.000000" stroke="none" 
	d="
M364.989197,123.082680 
	C358.631378,123.141991 352.273560,123.201302 345.454773,122.699844 
	C344.991425,117.059898 344.989044,111.980721 345.249084,106.680008 
	C350.073578,104.685928 351.951935,101.235863 350.718323,96.646538 
	C349.431274,91.858261 345.393188,90.823502 340.975464,90.373901 
	C340.980164,84.759720 340.984833,79.601700 340.989532,74.443672 
	C348.767059,74.403755 356.544556,74.363838 364.704254,74.937149 
	C365.054016,91.394470 365.021606,107.238579 364.989197,123.082680 
z"/>
<path fill="#0DC5FF" opacity="1.000000" stroke="none" 
	d="
M471.432129,367.973755 
	C471.000732,348.236542 470.967407,328.534393 471.036865,308.832611 
	C471.047302,305.874451 471.538635,302.917999 471.905212,299.565460 
	C476.362549,299.124634 480.722107,299.079102 485.444336,299.497223 
	C485.540619,302.264282 485.048370,304.567139 485.043335,306.871094 
	C485.000061,326.643799 485.044861,346.416687 485.063385,366.189545 
	C480.663452,366.796021 476.263519,367.402496 471.432129,367.973755 
z"/>
<path fill="#38B0FF" opacity="1.000000" stroke="none" 
	d="
M421.541565,299.105774 
	C421.681366,315.651123 421.399170,332.132141 421.009644,348.610626 
	C420.892975,353.544586 420.476562,358.471466 420.024902,363.738342 
	C416.794983,359.291992 412.849121,355.936371 406.404114,355.434692 
	C406.004547,336.334778 406.004852,317.753571 406.005157,299.172394 
	C411.029602,299.128387 416.054016,299.084412 421.541565,299.105774 
z"/>
<path fill="#41ABFF" opacity="1.000000" stroke="none" 
	d="
M405.542633,299.108093 
	C406.004852,317.753571 406.004547,336.334778 406.005157,355.373901 
	C401.616302,356.163391 397.226501,356.494934 392.436005,356.922791 
	C391.373596,355.018433 390.125397,353.012756 390.142487,351.017944 
	C390.288177,334.014252 390.663635,317.012543 390.987061,299.590668 
	C395.695892,299.128662 400.388000,299.086212 405.542633,299.108093 
z"/>
<path fill="#51A3FF" opacity="1.000000" stroke="none" 
	d="
M365.451477,123.170792 
	C365.021606,107.238579 365.054016,91.394470 365.104492,75.051819 
	C376.748901,75.789253 383.014771,82.578926 383.120178,94.208153 
	C383.195435,102.510376 383.018219,110.816292 383.192871,119.115517 
	C383.261871,122.395103 382.063751,123.556343 378.861755,123.405449 
	C374.553009,123.202393 370.230377,123.293861 365.451477,123.170792 
z"/>
<path fill="#04CAFF" opacity="1.000000" stroke="none" 
	d="
M485.499359,366.203217 
	C485.044861,346.416687 485.000061,326.643799 485.043335,306.871094 
	C485.048370,304.567139 485.540619,302.264282 485.904785,299.565613 
	C486.497925,299.121521 486.992523,299.039948 487.488739,299.028717 
	C497.003510,298.812500 497.004028,298.814209 497.004242,308.123566 
	C497.004639,324.575165 497.005554,341.026733 497.003876,357.478333 
	C497.003113,365.021271 496.508575,365.537964 488.917389,365.999237 
	C487.922638,366.059662 486.929321,366.143768 485.499359,366.203217 
z"/>
<path fill="#A078FD" opacity="1.000000" stroke="none" 
	d="
M171.991348,90.837967 
	C171.988297,85.664055 171.985260,80.490143 171.979156,74.877548 
	C185.337875,74.388206 198.699677,74.337555 212.525452,74.796646 
	C212.656845,80.483269 212.324280,85.660149 211.527115,90.894272 
	C198.038788,90.913658 185.015076,90.875809 171.991348,90.837967 
z"/>
<path fill="#8684FD" opacity="1.000000" stroke="none" 
	d="
M244.992096,74.438370 
	C255.685959,74.384659 266.379822,74.330948 277.537201,74.792007 
	C278.002563,80.484505 278.004395,85.662224 277.540039,90.897430 
	C266.044373,90.915985 255.014862,90.877052 244.047058,90.433258 
	C244.403198,84.831726 244.697647,79.635048 244.992096,74.438370 
z"/>
<path fill="#788CFD" opacity="1.000000" stroke="none" 
	d="
M278.006226,90.839943 
	C278.004395,85.662224 278.002563,80.484505 278.000305,74.867401 
	C288.690613,74.378784 299.381287,74.329552 310.535034,74.798386 
	C310.997131,80.489174 310.996155,85.661880 310.530792,90.895050 
	C299.379700,90.916985 288.692963,90.878464 278.006226,90.839943 
z"/>
<path fill="#987DFE" opacity="1.000000" stroke="none" 
	d="
M244.529510,74.365158 
	C244.697647,79.635048 244.403198,84.831726 243.582870,90.488846 
	C232.701904,90.911865 222.346802,90.874451 211.991714,90.837029 
	C212.324280,85.660149 212.656845,80.483269 212.987671,74.872009 
	C223.346268,74.389061 233.706604,74.340508 244.529510,74.365158 
z"/>
<path fill="#A078FD" opacity="1.000000" stroke="none" 
	d="
M167.470947,123.187286 
	C167.268570,117.958961 167.527069,112.818924 168.381989,107.279366 
	C179.654922,106.951820 190.331406,107.023796 201.007538,107.556870 
	C201.007263,113.045944 201.007370,118.073914 201.007462,123.101883 
	C189.982239,123.159782 178.957031,123.217682 167.470947,123.187286 
z"/>
<path fill="#6E94FF" opacity="1.000000" stroke="none" 
	d="
M310.995148,90.834595 
	C310.996155,85.661880 310.997131,80.489174 310.997375,74.877747 
	C320.687439,74.387497 330.378235,74.335953 340.529266,74.364044 
	C340.984833,79.601700 340.980164,84.759720 340.513428,90.434837 
	C330.365967,90.912811 320.680573,90.873703 310.995148,90.834595 
z"/>
<path fill="#987DFE" opacity="1.000000" stroke="none" 
	d="
M201.469055,123.185898 
	C201.007370,118.073914 201.007263,113.045944 201.471649,107.493675 
	C211.626770,107.013710 221.317413,107.058037 231.007568,107.563034 
	C231.007126,113.046761 231.007156,118.069817 231.007187,123.092880 
	C221.315018,123.151894 211.622833,123.210899 201.469055,123.185898 
z"/>
<path fill="#8684FD" opacity="1.000000" stroke="none" 
	d="
M286.970490,123.105850 
	C277.953003,123.161819 268.935486,123.217789 259.456421,122.714249 
	C258.992859,117.136185 258.990906,112.117630 259.454956,107.034309 
	C268.938660,107.010513 277.956329,107.051483 286.974121,107.553772 
	C286.973022,113.045341 286.971771,118.075600 286.970490,123.105850 
z"/>
<path fill="#8E83FE" opacity="1.000000" stroke="none" 
	d="
M258.988953,107.099075 
	C258.990906,112.117630 258.992859,117.136185 258.993835,122.628159 
	C249.971954,123.155098 240.951035,123.208603 231.468658,123.177498 
	C231.007156,118.069817 231.007126,113.046761 231.471558,107.499146 
	C240.953659,107.016090 249.971313,107.057579 258.988953,107.099075 
z"/>
<path fill="#788CFD" opacity="1.000000" stroke="none" 
	d="
M287.436035,123.188385 
	C286.971771,118.075600 286.973022,113.045341 287.442261,107.491554 
	C294.939362,107.013191 301.968506,107.058365 308.996674,107.564140 
	C308.993408,113.048439 308.991089,118.072136 308.988770,123.095825 
	C301.959686,123.154190 294.930634,123.212555 287.436035,123.188385 
z"/>
<path fill="#6599FF" opacity="1.000000" stroke="none" 
	d="
M344.986664,106.901550 
	C344.989044,111.980721 344.991425,117.059898 344.992737,122.611969 
	C339.300568,123.141678 333.609497,123.198471 327.457672,122.695587 
	C326.997803,117.127838 326.998688,112.119774 327.463745,107.046753 
	C333.614166,106.955055 339.300415,106.928307 344.986664,106.901550 
z"/>
<path fill="#6E94FF" opacity="1.000000" stroke="none" 
	d="
M326.999573,107.111710 
	C326.998688,112.119774 326.997803,117.127838 326.996338,122.607712 
	C321.302032,123.140015 315.608307,123.200516 309.451660,123.178421 
	C308.991089,118.072136 308.993408,113.048439 309.461639,107.502258 
	C315.618225,107.023750 321.308899,107.067726 326.999573,107.111710 
z"/>
<path fill="#000000" opacity="1.000000" stroke="none" 
	d="
M406.161011,283.001221 
	C404.045349,283.001129 402.407288,283.001129 400.397705,283.001129 
	C400.397705,280.936584 400.397705,279.249359 400.397705,277.274353 
	C412.784607,277.274353 425.014435,277.274353 437.611298,277.274353 
	C437.611298,279.077209 437.611298,280.764740 437.611298,283.001282 
	C427.170410,283.001282 416.904510,283.001282 406.161011,283.001221 
z"/>
<path fill="#23BBFF" opacity="1.000000" stroke="none" 
	d="
M442.988068,255.027344 
	C458.578522,256.599854 462.670349,268.369995 460.257263,282.753693 
	C458.412506,282.753693 456.524200,282.753693 454.128387,282.753693 
	C454.113159,273.737915 455.852570,263.854736 443.349548,260.544373 
	C442.991425,258.359344 442.989746,256.693359 442.988068,255.027344 
z"/>
<path fill="#5C9DFF" opacity="1.000000" stroke="none" 
	d="
M361.011902,260.902466 
	C349.529297,264.087585 350.695709,273.548248 350.908356,282.648560 
	C348.538910,282.648560 346.671722,282.648560 344.850311,282.648560 
	C341.815765,267.791595 347.860199,257.053894 360.618225,255.466156 
	C361.008423,257.583344 361.010162,259.242889 361.011902,260.902466 
z"/>
<path fill="#41ABFF" opacity="1.000000" stroke="none" 
	d="
M388.987213,254.994415 
	C398.675354,254.933884 408.363464,254.873337 418.513641,255.320953 
	C418.979401,257.499237 418.983124,259.169373 418.986816,260.839478 
	C409.300354,260.876648 399.613922,260.913849 389.461273,260.476990 
	C388.992462,258.333405 388.989838,256.663910 388.987213,254.994415 
z"/>
<path fill="#51A3FF" opacity="1.000000" stroke="none" 
	d="
M388.526825,254.907013 
	C388.989838,256.663910 388.992462,258.333405 388.995422,260.419617 
	C379.978485,260.885010 370.961182,260.933655 361.477905,260.942383 
	C361.010162,259.242889 361.008423,257.583344 361.007507,255.509003 
	C370.027710,255.002686 379.047089,254.911163 388.526825,254.907013 
z"/>
<path fill="#2DB5FF" opacity="1.000000" stroke="none" 
	d="
M419.454285,260.896393 
	C418.983124,259.169373 418.979401,257.499237 418.972961,255.411270 
	C426.670837,254.938171 434.371429,254.882935 442.530060,254.927521 
	C442.989746,256.693359 442.991425,258.359344 442.993317,260.441345 
	C435.302948,260.889343 427.612335,260.921326 419.454285,260.896393 
z"/>
<path fill="#000000" opacity="1.000000" stroke="none" 
	d="
M381.525635,282.873291 
	C376.619385,282.949402 372.168396,282.949402 367.373718,282.949402 
	C367.373718,280.898193 367.373718,279.214203 367.373718,277.260010 
	C372.494995,277.260010 377.398895,277.260010 383.231018,277.260010 
	C382.764984,279.324249 382.372955,281.060699 381.525635,282.873291 
z"/>
<path fill="#000000" opacity="1.000000" stroke="none" 
	d="
M403.974457,374.481476 
	C403.989868,382.190674 403.989868,389.442657 403.989868,397.815918 
	C402.379578,396.526215 401.204437,396.029755 401.193848,395.509491 
	C401.048096,388.369415 401.020447,381.225525 401.111511,374.084473 
	C401.119598,373.451752 402.158234,372.832214 402.718262,372.206543 
	C403.131836,372.812500 403.545441,373.418396 403.974457,374.481476 
z"/>
<path fill="#5407A5" opacity="1.000000" stroke="none" 
	d="
M70.815063,177.753357 
	C85.443916,167.912674 101.199295,163.578720 118.460266,165.011017 
	C131.936417,166.129242 144.024872,170.969696 154.655792,179.219604 
	C174.904312,194.933029 183.496902,216.104782 181.825012,241.231049 
	C180.869370,255.593277 175.368088,268.551208 165.846985,279.730133 
	C150.582108,297.652893 131.096008,305.926788 107.880943,304.864532 
	C92.946411,304.181091 79.406479,298.938660 67.704796,289.247223 
	C48.421150,273.276367 40.090965,252.462418 42.224491,228.015137 
	C43.950409,208.238495 52.840248,191.552963 69.084938,179.355606 
	C69.614021,178.958328 70.058655,178.448593 70.815063,177.753357 
M116.356865,181.296204 
	C93.550163,179.714569 72.464073,192.121506 63.119148,212.620987 
	C55.510429,229.311859 57.458191,253.204330 67.114517,262.870270 
	C70.870110,259.628510 74.326408,255.947815 78.442863,253.289322 
	C82.500587,250.668808 87.226860,249.083466 91.884888,246.940399 
	C91.114090,245.984985 90.415565,245.091202 89.688080,244.221664 
	C80.478981,233.214249 80.251633,217.771332 89.348091,206.603210 
	C96.485054,197.840881 106.127739,195.214920 117.640984,196.314438 
	C141.710052,203.351120 147.273987,222.562836 132.117462,247.680984 
	C142.304855,249.782928 150.293930,255.363190 156.967850,263.986145 
	C166.742935,247.771912 168.555588,231.580261 161.734741,215.091431 
	C153.588577,195.398727 138.586777,183.977859 116.356865,181.296204 
M142.114471,272.285034 
	C138.839935,267.260162 134.006516,264.340698 128.232712,264.117828 
	C117.565193,263.706116 106.855408,263.647705 96.192154,264.109619 
	C88.168846,264.457214 82.678864,269.140503 79.435944,276.437073 
	C99.888123,292.308014 126.380615,291.158722 144.618210,276.134979 
	C143.910233,275.057770 143.196594,273.971924 142.114471,272.285034 
M123.633919,230.805099 
	C123.997307,229.718002 124.429558,228.648499 124.712868,227.540924 
	C126.512947,220.503754 118.354675,211.157516 111.236557,212.076355 
	C105.486038,212.818649 99.524940,218.690781 99.016594,224.113968 
	C98.490570,229.725662 102.248665,235.320587 107.988083,237.470535 
	C113.450020,239.516510 119.492325,237.112717 123.633919,230.805099 
z"/>
<path fill="#5407A5" opacity="1.000000" stroke="none" 
	d="
M157.000000,328.000000 
	C192.639938,328.000092 227.779892,327.994293 262.919830,328.004456 
	C271.695648,328.007019 274.996002,331.262238 274.998810,339.846375 
	C275.003082,353.003021 275.014221,366.159729 274.993896,379.316345 
	C274.982666,386.582520 271.618713,389.991852 264.410004,389.992950 
	C193.797043,390.003784 123.184074,390.003571 52.571114,389.993011 
	C45.615196,389.991974 42.100395,386.704590 42.039425,379.743286 
	C41.918365,365.921509 41.937004,352.097504 42.033749,338.275360 
	C42.076363,332.186615 46.892624,328.009277 53.578342,328.006622 
	C87.885559,327.993042 122.192780,328.000122 157.000000,328.000000 
M183.922546,373.961151 
	C191.282242,373.922821 198.641937,373.884491 206.932709,373.959686 
	C215.621933,373.920074 224.311142,373.880493 233.931442,373.955811 
	C242.173996,373.955811 250.416565,373.955811 258.991547,373.955811 
	C258.991547,364.641296 258.932068,356.167236 259.026855,347.694916 
	C259.056244,345.070068 257.941742,344.161652 255.451355,344.204926 
	C247.965836,344.335052 240.478622,344.367615 232.066986,344.286621 
	C223.713867,344.335449 215.360748,344.384247 206.080399,344.281952 
	C198.710602,344.334106 191.340790,344.386292 183.047897,344.291687 
	C174.696594,344.342865 166.345291,344.394073 157.069000,344.291260 
	C148.049118,344.340424 139.029251,344.389557 129.081818,344.285645 
	C120.048950,344.336212 111.016083,344.386749 101.058968,344.287506 
	C88.394951,344.260101 75.729996,344.153442 63.068081,344.303375 
	C61.445698,344.322540 58.464363,345.626648 58.435452,346.420074 
	C58.104965,355.490906 58.225220,364.578186 58.225220,373.842255 
	C73.364540,373.842255 87.679710,373.842255 102.926414,373.961639 
	C111.951553,373.921631 120.976692,373.881622 130.932587,373.957855 
	C140.288559,373.917328 149.644547,373.876801 159.931351,373.952972 
	C167.617783,373.915405 175.304214,373.877808 183.922546,373.961151 
z"/>
<path fill="#5407A5" opacity="1.000000" stroke="none" 
	d="
M322.000000,181.999680 
	C330.486450,182.000626 338.473389,181.950912 346.459229,182.020920 
	C351.496674,182.065079 354.465698,184.869095 354.973633,189.811462 
	C355.368500,193.653549 351.568359,198.288971 347.421539,198.934387 
	C346.444885,199.086411 345.428650,198.997086 344.430634,198.997147 
	C307.493225,198.999466 270.555359,199.076736 233.619354,198.850204 
	C230.704819,198.832336 226.802917,197.463486 225.178085,195.334717 
	C223.565781,193.222351 223.059967,188.725555 224.269180,186.437149 
	C225.453522,184.195816 229.396790,182.219910 232.153625,182.187119 
	C258.438690,181.874496 284.728943,182.000000 311.017731,181.999680 
	C314.511810,181.999634 318.005920,181.999680 322.000000,181.999680 
z"/>
<path fill="#5407A5" opacity="1.000000" stroke="none" 
	d="
M247.002472,225.999741 
	C269.637848,226.000031 291.773804,225.978394 313.909637,226.013123 
	C321.168671,226.024506 324.241547,229.061096 323.996674,235.748749 
	C323.848633,239.791290 320.889618,242.962860 316.869293,242.969696 
	C288.242462,243.018448 259.615570,243.009048 230.988708,242.981110 
	C226.545166,242.976776 223.720474,240.566467 223.110184,236.284378 
	C222.485504,231.901306 224.284424,227.923935 228.758774,227.143463 
	C234.563400,226.130951 240.578491,226.325043 247.002472,225.999741 
z"/>
<path fill="#5407A5" opacity="1.000000" stroke="none" 
	d="
M253.999741,271.000366 
	C259.997864,271.000732 265.538330,271.421417 270.981445,270.873962 
	C275.685699,270.400818 279.673004,275.377594 279.972717,278.958832 
	C280.331573,283.246948 276.595123,287.833527 271.939209,287.904938 
	C258.280426,288.114410 244.612167,288.171143 230.956253,287.881165 
	C225.264206,287.760315 222.685944,284.271179 223.005966,278.694946 
	C223.291046,273.727753 226.377090,271.047089 232.006912,271.012085 
	C239.170959,270.967560 246.335495,271.000702 253.999741,271.000366 
z"/>
<path fill="#5508A6" opacity="1.000000" stroke="none" 
	d="
M50.129997,102.678833 
	C48.378517,97.226341 49.576374,93.786896 53.607712,91.849144 
	C57.945080,89.764290 64.365311,90.668709 66.287018,94.275467 
	C67.402962,96.369926 68.151093,99.890564 67.121811,101.598633 
	C65.710411,103.940826 62.487404,106.487831 59.982075,106.549141 
	C56.785980,106.627342 53.531338,104.312492 50.129997,102.678833 
z"/>
<path fill="#5508A6" opacity="1.000000" stroke="none" 
	d="
M85.684998,91.034515 
	C87.155426,90.913483 88.313553,90.961433 89.472054,90.997025 
	C94.996742,91.166733 98.523735,94.132698 98.642830,98.713203 
	C98.753830,102.982567 95.403839,106.276802 90.301079,106.877846 
	C89.481293,106.974403 88.645988,106.939232 87.407562,107.022751 
	C83.432953,105.792480 80.275139,104.184280 79.908882,99.731590 
	C79.554955,95.428917 81.706093,92.859993 85.684998,91.034515 
z"/>
<path fill="#5508A6" opacity="1.000000" stroke="none" 
	d="
M327.463745,107.046761 
	C321.308899,107.067726 315.618225,107.023750 309.462585,107.041649 
	C301.968506,107.058365 294.939362,107.013191 287.442108,107.030235 
	C277.956329,107.051483 268.938660,107.010513 259.454987,107.034309 
	C249.971313,107.057579 240.953659,107.016090 231.472031,107.038483 
	C221.317413,107.058037 211.626770,107.013710 201.472015,107.032578 
	C190.331406,107.023796 179.654922,106.951820 168.512970,106.877747 
	C166.376572,104.391953 163.887299,102.107529 163.222809,99.378746 
	C162.176437,95.081802 165.539886,92.013145 171.606964,90.895737 
	C185.015076,90.875809 198.038788,90.913658 211.527115,90.894272 
	C222.346802,90.874451 232.701904,90.911865 243.521179,90.893692 
	C255.014862,90.877052 266.044373,90.915985 277.540039,90.897430 
	C288.692963,90.878464 299.379700,90.916985 310.530792,90.895050 
	C320.680573,90.873703 330.365967,90.912811 340.513428,90.890991 
	C345.393188,90.823502 349.431274,91.858261 350.718323,96.646538 
	C351.951935,101.235863 350.073578,104.685928 345.249084,106.680008 
	C339.300415,106.928307 333.614166,106.955055 327.463745,107.046761 
z"/>
<path fill="#5508A6" opacity="1.000000" stroke="none" 
	d="
M128.408569,102.637512 
	C124.722702,107.286873 120.203499,107.855690 115.309616,106.034615 
	C111.843399,104.744774 109.585800,101.660133 110.630722,98.311432 
	C111.478836,95.593445 114.025757,92.386673 116.573174,91.452469 
	C120.567497,89.987617 125.127388,90.488441 128.328125,94.909576 
	C128.550293,97.522980 128.541489,99.894005 128.408569,102.637512 
z"/>
<path fill="#BA6CFE" opacity="1.000000" stroke="none" 
	d="
M116.998222,195.963028 
	C106.127739,195.214920 96.485054,197.840881 89.348091,206.603210 
	C80.251633,217.771332 80.478981,233.214249 89.688080,244.221664 
	C90.415565,245.091202 91.114090,245.984985 91.884888,246.940399 
	C87.226860,249.083466 82.500587,250.668808 78.442863,253.289322 
	C74.326408,255.947815 70.870110,259.628510 67.114517,262.870270 
	C57.458191,253.204330 55.510429,229.311859 63.119148,212.620987 
	C72.464073,192.121506 93.550163,179.714569 116.729385,181.913147 
	C117.067352,187.007721 117.032791,191.485382 116.998222,195.963028 
z"/>
<path fill="#AE73FE" opacity="1.000000" stroke="none" 
	d="
M117.319603,196.138733 
	C117.032791,191.485382 117.067352,187.007721 117.122147,182.034286 
	C138.586777,183.977859 153.588577,195.398727 161.734741,215.091431 
	C168.555588,231.580261 166.742935,247.771912 156.967850,263.986145 
	C150.293930,255.363190 142.304855,249.782928 132.117462,247.680984 
	C147.273987,222.562836 141.710052,203.351120 117.319603,196.138733 
z"/>
<path fill="#000000" opacity="1.000000" stroke="none" 
	d="
M142.298706,272.585571 
	C143.196594,273.971924 143.910233,275.057770 144.618210,276.134979 
	C126.380615,291.158722 99.888123,292.308014 79.435944,276.437073 
	C82.678864,269.140503 88.168846,264.457214 96.192154,264.109619 
	C106.855408,263.647705 117.565193,263.706116 128.232712,264.117828 
	C134.006516,264.340698 138.839935,267.260162 142.298706,272.585571 
z"/>
<path fill="#000000" opacity="1.000000" stroke="none" 
	d="
M123.401291,231.118164 
	C119.492325,237.112717 113.450020,239.516510 107.988083,237.470535 
	C102.248665,235.320587 98.490570,229.725662 99.016594,224.113968 
	C99.524940,218.690781 105.486038,212.818649 111.236557,212.076355 
	C118.354675,211.157516 126.512947,220.503754 124.712868,227.540924 
	C124.429558,228.648499 123.997307,229.718002 123.401291,231.118164 
z"/>
<path fill="#BA6CFE" opacity="1.000000" stroke="none" 
	d="
M101.994881,373.842255 
	C87.679710,373.842255 73.364540,373.842255 58.225220,373.842255 
	C58.225220,364.578186 58.104965,355.490906 58.435452,346.420074 
	C58.464363,345.626648 61.445698,344.322540 63.068081,344.303375 
	C75.729996,344.153442 88.394951,344.260101 101.523399,344.802673 
	C101.990181,354.825958 101.992531,364.334106 101.994881,373.842255 
z"/>
<path fill="#AE73FE" opacity="1.000000" stroke="none" 
	d="
M159.000519,373.836243 
	C149.644547,373.876801 140.288559,373.917328 130.466949,373.441284 
	C130.004013,363.429413 130.006683,353.934052 130.009369,344.438721 
	C139.029251,344.389557 148.049118,344.340424 157.532593,344.807983 
	C158.330963,354.828552 158.665741,364.332428 159.000519,373.836243 
z"/>
<path fill="#B46FFD" opacity="1.000000" stroke="none" 
	d="
M129.545593,344.362183 
	C130.006683,353.934052 130.004013,363.429413 130.001587,373.383179 
	C120.976692,373.881622 111.951553,373.921631 102.460648,373.901947 
	C101.992531,364.334106 101.990181,354.825958 101.985519,344.877563 
	C111.016083,344.386749 120.048950,344.336212 129.545593,344.362183 
z"/>
<path fill="#987DFE" opacity="1.000000" stroke="none" 
	d="
M207.007629,344.433075 
	C215.360748,344.384247 223.713867,344.335449 232.530975,344.802521 
	C232.996765,354.825928 232.998566,364.333405 233.000366,373.840912 
	C224.311142,373.880493 215.621933,373.920074 206.527817,373.496643 
	C206.417816,363.500122 206.712723,353.966583 207.007629,344.433075 
z"/>
<path fill="#8E83FE" opacity="1.000000" stroke="none" 
	d="
M233.465912,373.898376 
	C232.998566,364.333405 232.996765,354.825928 232.993530,344.878326 
	C240.478622,344.367615 247.965836,344.335052 255.451355,344.204926 
	C257.941742,344.161652 259.056244,345.070068 259.026855,347.694916 
	C258.932068,356.167236 258.991547,364.641296 258.991547,373.955811 
	C250.416565,373.955811 242.173996,373.955811 233.465912,373.898376 
z"/>
<path fill="#A877FF" opacity="1.000000" stroke="none" 
	d="
M159.465942,373.894623 
	C158.665741,364.332428 158.330963,354.828552 157.995087,344.885010 
	C166.345291,344.394073 174.696594,344.342865 183.513489,344.805176 
	C183.649612,354.825867 183.320129,364.333038 182.990646,373.840240 
	C175.304214,373.877808 167.617783,373.915405 159.465942,373.894623 
z"/>
<path fill="#A078FD" opacity="1.000000" stroke="none" 
	d="
M183.456604,373.900696 
	C183.320129,364.333038 183.649612,354.825867 183.975037,344.878540 
	C191.340790,344.386292 198.710602,344.334106 206.544006,344.357513 
	C206.712723,353.966583 206.417816,363.500122 206.062286,373.439880 
	C198.641937,373.884491 191.282242,373.922821 183.456604,373.900696 
z"/>
</svg>